<svg width="9091" height="4759" viewBox="0 0 9091 4759" fill="none" xmlns="http://www.w3.org/2000/svg">
<g clip-path="url(#clip0)">
<path d="M8418.27 1855L7694.17 1492.88L6348.7 2165.74L5886.24 1934.45L5185.49 434.47L6054.43 -0.0703125L7834.34 890.065L8198.72 707.831L8731.29 974.173L8366.91 1156.41L9091 1518.59L8418.27 1855ZM7161.6 1226.55L6488.87 890.192C6306.69 799.084 6129.16 700.958 5946.95 595.814L5928.26 605.177C6026.45 752.448 6124.48 880.847 6213.25 1028.05L6470.2 1563.06L6479.52 1567.71L7161.6 1226.55Z" fill="#27283F"/>
<path d="M8366.91 1156.45V1829.3L8418.28 1854.99L9091.01 1518.63L8366.91 1156.45Z" fill="#3B3E6A"/>
<path d="M7834.3 890.118V1562.97L7694.16 1492.87L7161.59 1758.33V1226.55L6544.93 939.39L6050.7 653.266L6054.34 0.000976562L7834.3 890.118Z" fill="#32345A"/>
<path d="M7161.6 1226.55V1758.4L6473.79 2102.38L6479.53 1567.65L7161.6 1226.55Z" fill="#3B3E6A"/>
<path d="M8198.73 707.877V1745.19L8366.91 1829.3V1156.45L8731.3 974.219L8198.73 707.877Z" fill="#27283F"/>
<path d="M5928.26 605.107V1955.47L6348.72 2165.74L6472.59 2103.8L6479.54 1567.66L6213.26 1027.98L5928.26 605.107Z" fill="#393C63"/>
<path d="M3232.76 4448.25L2508.66 4086.13L1163.19 4759L700.698 4527.69L0 3027.8L868.936 2593.26L2648.84 3483.39L3013.25 3301.16L3545.82 3567.5L3181.41 3749.74L3905.49 4111.82L3232.76 4448.25ZM1976.09 3819.81L1303.36 3483.45C1121.16 3392.32 943.628 3294.21 761.535 3189.07L742.844 3198.41C841.027 3345.69 939.046 3474.1 1027.81 3621.28L1284.76 4156.29L1294.1 4160.97L1976.09 3819.81Z" fill="#27283F"/>
<path d="M5278.97 1892.36C6217.98 2361.95 6484.24 2873.6 5708.74 3261.43C4923.9 3654.01 3872.78 3474.01 3008.53 3046.49C2130.25 2607.28 1807.9 2072.26 2592.75 1679.76C3405.63 1273.24 4447.42 1476.49 5278.97 1892.36ZM3723.29 2689.04C4414.71 3039.49 4914.57 3121.25 5190.19 2983.42C5465.81 2845.58 5269.61 2597.97 4578.2 2252.15C3905.47 1915.79 3405.61 1810.59 3120.64 1953.12C2859.04 2083.94 3013.21 2338.61 3723.29 2689.04V2689.04Z" fill="url(#paint0_linear)"/>
<path d="M3181.43 3749.71V4422.56L3232.81 4448.25L3905.54 4111.89L3181.43 3749.71Z" fill="#3B3E6A"/>
<path d="M2648.88 3483.37V4156.22L2508.73 4086.13L1976.16 4351.58V3819.81L1359.5 3532.65L865.277 3246.52L868.914 2593.26L2648.88 3483.37Z" fill="#32345A"/>
<path d="M1976.1 3819.81V4351.66L1288.3 4695.63L1294.04 4160.91L1976.1 3819.81Z" fill="#3B3E6A"/>
<path d="M3013.24 3301.13V4338.45L3181.43 4422.56V3749.71L3545.81 3567.48L3013.24 3301.13Z" fill="#27283F"/>
<path d="M742.832 3198.33V4548.7L1163.29 4758.97L1287.16 4697.02L1294.11 4160.88L1027.8 3621.29L742.832 3198.33Z" fill="#393C63"/>
<path d="M5190.19 2983.41C4914.56 3121.24 4414.71 3039.48 3723.28 2689.03C3229.06 2445.12 3004.4 2247.69 3001.45 2106.03L3001.16 2105.94L3011.62 3048.01C3735.93 3405.64 4590.87 3589.04 5310.3 3407.75V2797.64L5303.95 2795.83C5326.04 2871.72 5287.97 2934.52 5190.19 2983.41Z" fill="#393C63"/>
</g>
<defs>
<linearGradient id="paint0_linear" x1="2146.97" y1="2468.74" x2="6162.91" y2="2468.74" gradientUnits="userSpaceOnUse">
<stop stop-color="#3B3E6A"/>
<stop offset="1" stop-color="#27283F"/>
</linearGradient>
<clipPath id="clip0">
<rect width="9091" height="4759" fill="white"/>
</clipPath>
</defs>
</svg>
