<svg xmlns="http://www.w3.org/2000/svg" width="1584.837" height="1299.822" viewBox="0 0 1584.837 1299.822">
  <g id="robot" transform="translate(-396.579 -476.828)">
    <g id="Gruppe_16" data-name="Gruppe 16">
      <g id="Gruppe_11" data-name="Gruppe 11">
        <rect id="Rechteck_2" data-name="Rechteck 2" width="500.617" height="357.389" transform="translate(995.548 995.601)" fill="#fff"/>
        <path id="Pfad_1" data-name="Pfad 1" d="M996.611,1372.811v158.2h60.994V1365.187Z" fill="#2f333f"/>
        <g id="Gruppe_3" data-name="Gruppe 3">
          <g id="Gruppe_2" data-name="Gruppe 2">
            <g id="Gruppe_1" data-name="Gruppe 1">
              <path id="Pfad_2" data-name="Pfad 2" d="M941.1,689.759H878.352V548.472c16.655-3.717,29.068-18.129,29.068-35.351,0-20.045-16.812-36.293-37.552-36.293s-37.555,16.248-37.555,36.293c0,17.222,12.416,31.634,29.068,35.351V689.759H851.146A18.938,18.938,0,0,0,832.209,708.7V917.02a18.937,18.937,0,0,0,18.937,18.937H941.1a18.938,18.938,0,0,0,18.936-18.937V708.7A18.939,18.939,0,0,0,941.1,689.759Z" fill="#cadde1"/>
            </g>
          </g>
        </g>
        <path id="Pfad_3" data-name="Pfad 3" d="M881.829,1040.56c10.484,0,113.719-44.959,113.719-44.959h500.617l-113.718,44.959Z" fill="#c1d1d3"/>
        <rect id="Rechteck_3" data-name="Rechteck 3" width="344.046" height="67.666" transform="translate(1004.771 950.021)" fill="#2f333f"/>
        <path id="Pfad_4" data-name="Pfad 4" d="M1190.613,499.235c-164.212,0-298.461,98.585-308.2,222.991l-.588.02V974.182h614.336V702.337C1474.508,587.474,1345.968,499.235,1190.613,499.235Z" fill="#fff"/>
        <path id="Pfad_5" data-name="Pfad 5" d="M1090.9,615.506c-103.582,0-188.264,62.185-194.405,140.659l-.37.012V915.094h387.512V743.619C1269.976,671.165,1188.9,615.506,1090.9,615.506Z" fill="#2f333f"/>
        <rect id="Rechteck_4" data-name="Rechteck 4" width="28.591" height="91.492" rx="5" transform="translate(1162.022 759.414)" fill="#fee735"/>
        <g id="Gruppe_5" data-name="Gruppe 5">
          <path id="Pfad_6" data-name="Pfad 6" d="M675.282,1322.563c-4.514,11.836,1.03,27.281,11.632,35.287,12.785,9.656,30.011,10.886,45.991,9.732a192.674,192.674,0,0,0,47.516-9.543c14.3-4.81,24.188-7.717,38.491-2.9a123.375,123.375,0,0,1,16.242,51.556c.945,11.27-1.078,24.923-11.323,29.713-9.981,4.666-22.245-2.715-26.852-12.725s-3.664-21.575-2.627-32.544c-15.684-.074-30.773,7.814-41.429,19.322s-17.2,26.345-20.886,41.59c-2.323,9.607-3.817,19.974-10.209,27.512s-19.985,9.932-25.549,1.764c-2.929-4.3-2.694-9.94-2.185-15.116a252.34,252.34,0,0,1,7.477-40.973c1.611-5.979,2.57-14.07-3-16.772a6.318,6.318,0,0,0-1.616-.514,68.761,68.761,0,0,0-8.422,20.544c-1.56,6.452-2.563,13.415-6.857,18.478s-13.423,6.671-17.159,1.185c-1.968-2.887-1.81-6.676-1.468-10.153.912-9.289,12.367-36.168,14.8-45.183.412-3.467-.325-7.03-3.5-7.4a3.9,3.9,0,0,0-2.058.341c-.5,1.628-.965,3.269-1.364,4.919-1.561,6.453-2.564,13.415-6.857,18.478s-13.422,6.671-17.16,1.185c-1.967-2.887-1.81-6.676-1.467-10.153.422-4.306,3.114-12.392,6.118-20.725C654.68,1359.857,664.676,1340.4,675.282,1322.563Z" fill="#2f333f"/>
          <g id="Gruppe_4" data-name="Gruppe 4">
            <path id="Pfad_7" data-name="Pfad 7" d="M864.6,1112.487q7.813-5.286,15.786-10.332c10.677-6.727,22.193-13.3,34.809-13.648,16.477-.452,32.535,11.236,37.169,27.055,4.042,13.8-.935,29.638-11.641,39.107-.763.577-1.532,1.149-2.284,1.737l1.3-.93q-1.113.918-2.3,1.741A208.246,208.246,0,0,0,900.26,1196.1C900.78,1163.627,887.747,1133.168,864.6,1112.487Z" fill="#fff"/>
            <path id="Pfad_8" data-name="Pfad 8" d="M691.353,1293.706a594.346,594.346,0,0,1,151.284-165.557c25.855,26.051,42.711,60.319,39.552,95.336-13.8,23.392-25.267,48.811-36.187,74.269C798.816,1333.225,739.115,1324.779,691.353,1293.706Z" fill="#fff"/>
            <path id="Pfad_9" data-name="Pfad 9" d="M830.842,1333.278c-.633,1.471-1.262,2.968-1.9,4.434-8.965,20.642-19.432,42.078-38.245,54.429-20.564,13.5-47.271,13.45-71.393,8.628-15.563-3.112-31.793-8.7-41.329-21.385-12.759-16.976-9.169-39.315-.481-59.76C725.772,1344.754,782.147,1352.59,830.842,1333.278Z" fill="#fff"/>
            <path id="Pfad_10" data-name="Pfad 10" d="M687.976,1299.2c1.1-1.846,2.253-3.663,3.377-5.5,47.762,31.073,107.463,39.519,154.649,4.048-5.11,11.91-10.109,23.8-15.16,35.524-48.7,19.312-105.07,11.476-153.347-13.654A169.3,169.3,0,0,1,687.976,1299.2Z" fill="#2f333f"/>
            <path id="Pfad_11" data-name="Pfad 11" d="M842.637,1128.149c7.21-5.375,14.515-10.624,21.965-15.662,23.145,20.681,36.178,51.14,35.658,83.618a301.874,301.874,0,0,0-18.071,27.38C885.348,1188.468,868.492,1154.2,842.637,1128.149Z" fill="#2f333f"/>
          </g>
        </g>
        <rect id="Rechteck_5" data-name="Rechteck 5" width="28.591" height="91.492" rx="5" transform="translate(941.87 759.414)" fill="#fee735"/>
        <g id="Gruppe_8" data-name="Gruppe 8">
          <g id="Gruppe_7" data-name="Gruppe 7">
            <g id="Gruppe_6" data-name="Gruppe 6">
              <path id="Pfad_12" data-name="Pfad 12" d="M1413.83,689.759h62.753V548.472c-16.655-3.717-29.068-18.129-29.068-35.351,0-20.045,16.812-36.293,37.552-36.293s37.555,16.248,37.555,36.293c0,17.222-12.416,31.634-29.068,35.351V689.759h10.235a18.938,18.938,0,0,1,18.937,18.938V917.02a18.937,18.937,0,0,1-18.937,18.937H1413.83a18.938,18.938,0,0,1-18.936-18.937V708.7A18.939,18.939,0,0,1,1413.83,689.759Z" fill="#cadde1"/>
            </g>
          </g>
        </g>
        <path id="Pfad_13" data-name="Pfad 13" d="M969.771,1644.724a17.6,17.6,0,0,1-1.135,4.959c-3.052,7.51-11.549,10.867-18.867,14.356-30.788,14.68-53.237,45.611-57.648,79.434-.352,2.69-.4,5.886,1.725,7.57,1.31,1.035,3.091,1.178,4.755,1.275a1700.69,1700.69,0,0,0,202.684-.261C1081.929,1693.766,1030.747,1647.832,969.771,1644.724Z" fill="#fff"/>
        <path id="Pfad_14" data-name="Pfad 14" d="M1119.146,1750.244a14.328,14.328,0,0,0,7.676-4.667c3.3-4.159,3.174-9.988,2.876-15.289q-2.526-44.652-6.707-89.19c-.656-6.994-1.413-13.979-2.13-20.967q-5.667-55.217-13.853-110.13a134.5,134.5,0,0,0-90.8-29.138,80.654,80.654,0,0,0-36.869,13.811,597.517,597.517,0,0,0-10.208,125.457c.1,4.239.289,8.477.477,12.714C1042.788,1618.844,1093.889,1681.735,1119.146,1750.244Z" fill="#fff"/>
        <path id="Pfad_15" data-name="Pfad 15" d="M969.607,1632.845c.063,1.416.084,2.834.159,4.25.07,1.325.137,2.665.154,4a33.11,33.11,0,0,1-.149,3.626c60.976,3.108,112.158,49.042,131.514,107.333,2.966-.18,5.934-.322,8.9-.518a44.843,44.843,0,0,0,8.962-1.295C1093.889,1681.735,1042.788,1618.844,969.607,1632.845Z" fill="#2f333f"/>
        <path id="Pfad_16" data-name="Pfad 16" d="M1244.415,1375.034v158.2h60.994V1367.41Z" fill="#2f333f"/>
        <path id="Pfad_17" data-name="Pfad 17" d="M1204.739,1652.822a17.529,17.529,0,0,1-1.135,4.959c-3.051,7.51-11.548,10.868-18.866,14.356-30.788,14.68-53.237,45.611-57.648,79.434-.352,2.69-.4,5.886,1.725,7.57,1.31,1.035,3.091,1.178,4.755,1.276a1701.1,1701.1,0,0,0,202.684-.261C1316.9,1701.864,1265.716,1655.93,1204.739,1652.822Z" fill="#fff"/>
        <path id="Pfad_18" data-name="Pfad 18" d="M1354.115,1758.343a14.329,14.329,0,0,0,7.676-4.668c3.3-4.159,3.174-9.988,2.876-15.289q-2.526-44.652-6.707-89.19c-.656-6.994-1.413-13.979-2.13-20.967q-5.667-55.217-13.853-110.13a134.506,134.506,0,0,0-90.8-29.138,80.672,80.672,0,0,0-36.87,13.811,597.522,597.522,0,0,0-10.208,125.457c.1,4.24.289,8.477.478,12.714C1277.757,1626.942,1328.858,1689.834,1354.115,1758.343Z" fill="#fff"/>
        <path id="Pfad_19" data-name="Pfad 19" d="M1204.576,1640.943c.063,1.417.084,2.834.159,4.251.07,1.324.137,2.665.154,4a33.115,33.115,0,0,1-.15,3.626c60.977,3.108,112.159,49.042,131.515,107.334,2.965-.181,5.933-.322,8.9-.518a44.913,44.913,0,0,0,8.962-1.295C1328.858,1689.834,1277.757,1626.942,1204.576,1640.943Z" fill="#2f333f"/>
        <rect id="Rechteck_6" data-name="Rechteck 6" width="500.617" height="357.389" transform="translate(881.829 1040.56)" fill="#fff"/>
        <rect id="Rechteck_7" data-name="Rechteck 7" width="0.476" height="3.336" rx="0.083" transform="translate(1081.967 1079.634)" fill="#fff"/>
        <path id="Pfad_20" data-name="Pfad 20" d="M1382.447,1397.948l113.719-44.959V995.6l-113.719,44.959Z" fill="#cadde1"/>
        <g id="Gruppe_10" data-name="Gruppe 10">
          <path id="Pfad_21" data-name="Pfad 21" d="M1608.959,1399.392c-.413,13.743-12.411,26.908-26.374,30.509-16.839,4.343-34.613-1.61-50.146-9.431a209.177,209.177,0,0,1-43.635-29.381c-12.327-10.787-21.02-17.822-37.361-18.963a133.925,133.925,0,0,0-37.78,44.889c-5.647,10.9-9.314,25.424-1.045,34.5,8.055,8.839,23.422,6.558,32.215-1.551s12.67-20.092,16.206-31.516c15.748,6.467,27.578,20.666,33.457,36.642s6.249,33.575,3.582,50.388c-1.679,10.6-4.506,21.608-1.245,31.828s15.884,18.288,24.866,12.424c4.729-3.086,6.846-8.837,8.495-14.237a273.829,273.829,0,0,0,9.6-44.177c.879-6.663,3.293-15.171,10-15.555a6.9,6.9,0,0,1,1.834.159,74.649,74.649,0,0,1-.13,24.1c-1.128,7.117-3.026,14.512-.836,21.377s10.669,12.284,16.7,8.345c3.176-2.073,4.6-5.936,5.706-9.563,2.961-9.688,2.693-41.4,4.018-51.449,1.033-3.646,3.258-6.908,6.594-5.959a4.223,4.223,0,0,1,1.92,1.2c-.174,1.842-.4,3.678-.684,5.5-1.128,7.117-3.027,14.512-.836,21.377s10.667,12.283,16.7,8.344c3.176-2.072,4.6-5.936,5.705-9.562,1.373-4.491,2.048-13.717,2.513-23.32C1614.049,1445.356,1612.148,1421.69,1608.959,1399.392Z" fill="#2f333f"/>
          <g id="Gruppe_9" data-name="Gruppe 9">
            <path id="Pfad_22" data-name="Pfad 22" d="M1506.867,1109.912q-5.626-8.556-11.51-16.938c-7.894-11.194-16.691-22.586-29.189-28.195-16.323-7.326-37.29-2.31-48.531,11.609-9.806,12.141-11.425,30.089-4.646,44.043.524.9,1.056,1.791,1.564,2.694l-.912-1.474q.734,1.384,1.58,2.7a226.006,226.006,0,0,1,21.035,54.476C1449.283,1146.07,1475.047,1120.983,1506.867,1109.912Z" fill="#fff"/>
            <path id="Pfad_23" data-name="Pfad 23" d="M1604.891,1363.77a645.135,645.135,0,0,0-82.546-229c-36.775,15.322-67.96,42.63-79.4,79.038,4.072,29.2,4.96,59.452,5.286,89.518C1480.721,1358.55,1544.069,1374.987,1604.891,1363.77Z" fill="#fff"/>
            <path id="Pfad_24" data-name="Pfad 24" d="M1448.606,1345.245c.021,1.739.026,3.5.053,5.235.374,24.425,1.922,50.271,15.623,70.495,14.975,22.1,41.76,33.2,67.943,38.423,16.894,3.374,35.488,4.544,50.335-4.191,19.867-11.689,25.586-35.572,25.408-59.683C1549.109,1400.57,1489.347,1384.908,1448.606,1345.245Z" fill="#fff"/>
            <path id="Pfad_25" data-name="Pfad 25" d="M1605.982,1370.687c-.335-2.31-.73-4.61-1.091-6.917-60.822,11.217-124.17-5.22-156.659-60.446.152,14.065.2,28.065.374,41.921,40.741,39.663,100.5,55.325,159.362,50.279A183.879,183.879,0,0,0,1605.982,1370.687Z" fill="#2f333f"/>
            <path id="Pfad_26" data-name="Pfad 26" d="M1522.345,1134.768c-4.984-8.393-10.114-16.7-15.478-24.856-31.82,11.071-57.584,36.158-70.609,68.92a327.942,327.942,0,0,1,6.688,34.974C1454.385,1177.4,1485.57,1150.09,1522.345,1134.768Z" fill="#2f333f"/>
          </g>
        </g>
      </g>
      <g id="Gruppe_15" data-name="Gruppe 15">
        <path id="Pfad_27" data-name="Pfad 27" d="M1258.911,1100.95v70.143c0,10.936-10.927,19.913-24.957,20.972-.911.062-1.832.1-2.773.1H978.837c-15.3,0-27.73-9.442-27.73-21.074V1100.95c0-11.632,12.426-21.077,27.73-21.077h252.344C1246.516,1079.873,1258.911,1089.318,1258.911,1100.95Z" fill="#2f333f"/>
        <path id="Pfad_28" data-name="Pfad 28" d="M1112.388,1192.167h-13.921l-35.609-63.712c-.55-.969,0-2.084,1.249-2.527a3.289,3.289,0,0,1,1.083-.195,2.792,2.792,0,0,1,2.3,1.056Z" fill="#fee735"/>
        <g id="Gruppe_12" data-name="Gruppe 12">
          <path id="Pfad_29" data-name="Pfad 29" d="M1108.6,1096.511c-69.1,0-125.338,42.892-125.338,95.662h5.56c0-50.441,53.744-91.44,119.778-91.44,66.078,0,119.823,41,119.823,91.44h2.737c.981,0,1.879-.062,2.772-.123C1233.854,1139.344,1177.659,1096.511,1108.6,1096.511Z" fill="#fee735"/>
        </g>
        <g id="Gruppe_14" data-name="Gruppe 14">
          <path id="Pfad_30" data-name="Pfad 30" d="M1256.69,1231.053v70.141c0,10.937-10.927,19.914-24.959,20.97-.916.066-1.832.105-2.771.105H976.617c-15.31,0-27.733-9.441-27.733-21.075v-70.141c0-11.632,12.423-21.078,27.733-21.078H1228.96C1244.3,1209.975,1256.69,1219.421,1256.69,1231.053Z" fill="#2f333f"/>
          <g id="Gruppe_13" data-name="Gruppe 13">
            <path id="Pfad_31" data-name="Pfad 31" d="M992.333,1326.163l-12.425-60.716-6.058,8.442H948.886v-7.63h19l17.391-24.223,9.563,46.754,22.586-65.477,6.264,39.97h23.052l7.048,7.5,13.318-37.667,13.8,42.98,5.852-12.808h35.159l24.243-30.913,7.23,41.147,3.372-10.234h43.1l16.773,28.879,12.321-82.187,13.745,53.762,13.18,1.509-1.5,7.548-20.356-2.336-3.4-15.133-7.176,67.467-30.125-51.88H1164.6l-14.215,43.136-10.357-58.954-12.4,15.818H1093.9l-14.675,32.12-12.582-39.195-8.661,24.5-16.4-17.427h-26.8l-1.059-6.762Z" fill="#fee735"/>
          </g>
        </g>
      </g>
    </g>
  </g>
</svg>
