<svg width="2318" height="27264" viewBox="0 0 2318 27264" fill="none" xmlns="http://www.w3.org/2000/svg">
<path d="M796.686 1162.62L1423.01 1162.62L1423.01 1609.53L796.686 1609.53L796.686 1162.62Z" fill="white"/>
<path d="M1421.68 1634.32L1421.68 1832.15L1345.37 1832.15L1345.37 1624.79L1421.68 1634.32Z" fill="#2F333F"/>
<path d="M1491.13 780.168L1569.64 780.168L1569.64 603.489C1548.8 598.841 1533.27 580.819 1533.27 559.283C1533.27 534.217 1554.3 513.898 1580.25 513.898C1606.2 513.898 1627.24 534.217 1627.24 559.283C1627.24 580.819 1611.7 598.841 1590.87 603.489L1590.87 780.168L1603.67 780.168C1609.96 780.168 1615.98 782.663 1620.43 787.104C1624.87 791.544 1627.37 797.568 1627.37 803.848L1627.37 1064.36C1627.37 1070.64 1624.87 1076.66 1620.43 1081.1C1615.98 1085.54 1609.96 1088.04 1603.67 1088.04L1491.13 1088.04C1484.84 1088.04 1478.82 1085.54 1474.37 1081.1C1469.93 1076.66 1467.44 1070.64 1467.43 1064.36L1467.43 803.848C1467.44 797.568 1469.93 791.545 1474.37 787.105C1478.82 782.664 1484.84 780.169 1491.13 780.168V780.168Z" fill="#CADDE1"/>
<path d="M1565.28 1218.84C1552.17 1218.84 1423 1162.62 1423 1162.62L796.682 1162.62L938.961 1218.84L1565.28 1218.84Z" fill="#C1D1D3"/>
<path d="M981.033 1105.62L1411.47 1105.62L1411.47 1190.24L981.033 1190.24L981.033 1105.62Z" fill="#2F333F"/>
<path d="M1178.96 541.918C1384.41 541.918 1552.37 665.197 1564.55 820.767L1565.28 820.791L1565.28 1135.83L796.682 1135.83L796.682 795.895C823.777 652.26 984.595 541.918 1178.96 541.918Z" fill="white"/>
<path d="M1303.72 687.312C1433.31 687.312 1539.26 765.079 1546.94 863.206L1547.4 863.221L1547.4 1061.95L1062.58 1061.95L1062.58 847.517C1079.67 756.914 1181.11 687.312 1303.72 687.312Z" fill="#2F333F"/>
<path d="M1184.71 867.27L1208.99 867.27C1212.16 867.27 1214.73 869.841 1214.73 873.013L1214.73 975.935C1214.73 979.107 1212.16 981.679 1208.99 981.679L1184.71 981.679C1181.54 981.679 1178.96 979.107 1178.96 975.935L1178.96 873.013C1178.96 869.841 1181.54 867.27 1184.71 867.27Z" fill="#FEE735"/>
<path d="M1460.14 867.27L1484.42 867.27C1487.59 867.27 1490.16 869.841 1490.16 873.013L1490.16 975.935C1490.16 979.107 1487.59 981.679 1484.42 981.679L1460.14 981.679C1456.97 981.679 1454.39 979.107 1454.39 975.935L1454.39 873.013C1454.39 869.841 1456.97 867.27 1460.14 867.27Z" fill="#FEE735"/>
<path d="M899.697 780.168L821.189 780.168L821.189 603.489C842.025 598.841 857.556 580.819 857.556 559.283C857.556 534.217 836.525 513.898 810.575 513.898C784.624 513.898 763.588 534.217 763.588 559.283C763.588 580.819 779.123 598.841 799.957 603.489L799.957 780.168L787.152 780.168C780.868 780.168 774.842 782.663 770.398 787.103C765.955 791.544 763.459 797.568 763.458 803.848L763.458 1064.36C763.459 1070.64 765.955 1076.66 770.398 1081.1C774.842 1085.54 780.868 1088.04 787.152 1088.04L899.7 1088.04C905.983 1088.04 912.009 1085.54 916.452 1081.1C920.894 1076.66 923.39 1070.64 923.391 1064.36L923.391 803.848C923.39 797.568 920.894 791.545 916.45 787.104C912.007 782.663 905.981 780.168 899.697 780.168V780.168Z" fill="#CADDE1"/>
<path d="M1455.26 1974.34C1455.43 1976.47 1455.91 1978.56 1456.68 1980.55C1460.5 1989.94 1471.13 1994.14 1480.29 1998.5C1518.81 2016.86 1546.89 2055.53 1552.41 2097.83C1552.85 2101.19 1552.91 2105.19 1550.25 2107.3C1548.61 2108.59 1546.38 2108.77 1544.3 2108.89C1459.84 2113.82 1375.17 2113.71 1290.72 2108.57C1314.94 2035.67 1378.97 1978.23 1455.26 1974.34Z" fill="white"/>
<path d="M1268.38 2106.3C1264.63 2105.43 1261.27 2103.38 1258.78 2100.46C1254.65 2095.26 1254.8 2087.97 1255.18 2081.34C1257.28 2044.12 1260.08 2006.94 1263.57 1969.81C1264.39 1961.06 1265.33 1952.33 1266.23 1943.59C1270.96 1897.56 1276.73 1851.65 1283.56 1805.87C1315.71 1780.27 1356.12 1767.31 1397.17 1769.44C1413.66 1771.09 1429.37 1777.34 1443.29 1786.71C1453.06 1838.41 1457.35 1890.99 1456.06 1943.59C1455.93 1948.89 1455.7 1954.19 1455.47 1959.49C1363.91 1941.98 1299.98 2020.63 1268.38 2106.3Z" fill="white"/>
<path d="M1455.47 1959.49C1455.39 1961.26 1455.36 1963.03 1455.27 1964.81C1455.18 1966.46 1455.1 1968.14 1455.08 1969.81C1455.06 1971.32 1455.12 1972.84 1455.26 1974.35C1378.98 1978.23 1314.94 2035.67 1290.73 2108.56C1287.02 2108.34 1283.3 2108.16 1279.59 2107.92C1275.81 2107.76 1272.05 2107.21 1268.38 2106.3C1299.98 2020.63 1363.91 1941.98 1455.47 1959.49Z" fill="#2F333F"/>
<path d="M1111.65 1637.1L1111.65 1834.93L1035.34 1834.93L1035.34 1627.57L1111.65 1637.1Z" fill="#2F333F"/>
<path d="M1161.29 1984.47C1161.46 1986.59 1161.94 1988.68 1162.71 1990.67C1166.53 2000.06 1177.16 2004.26 1186.31 2008.62C1224.83 2026.98 1252.92 2065.66 1258.44 2107.95C1258.88 2111.32 1258.94 2115.32 1256.28 2117.42C1254.64 2118.72 1252.41 2118.89 1250.33 2119.02C1165.87 2123.95 1081.19 2123.84 996.75 2118.69C1020.97 2045.8 1085 1988.35 1161.29 1984.47Z" fill="white"/>
<path d="M974.409 2116.43C970.665 2115.56 967.299 2113.51 964.807 2110.59C960.677 2105.39 960.835 2098.1 961.208 2091.47C963.315 2054.25 966.112 2017.07 969.598 1979.94C970.419 1971.19 971.366 1962.46 972.263 1953.72C976.989 1907.69 982.766 1861.78 989.595 1816C1021.74 1790.4 1062.15 1777.44 1103.2 1779.57C1119.69 1781.22 1135.4 1787.47 1149.32 1796.84C1159.09 1848.54 1163.38 1901.12 1162.1 1953.72C1161.97 1959.02 1161.73 1964.32 1161.5 1969.62C1069.94 1952.11 1006.01 2030.76 974.409 2116.43Z" fill="white"/>
<path d="M1161.49 1969.62C1161.41 1971.39 1161.39 1973.16 1161.29 1974.93C1161.21 1976.59 1161.12 1978.26 1161.1 1979.94C1161.08 1981.45 1161.14 1982.96 1161.29 1984.47C1085 1988.36 1020.96 2045.8 996.749 2118.69C993.039 2118.46 989.326 2118.29 985.616 2118.04C981.833 2117.88 978.076 2117.34 974.402 2116.42C1006 2030.75 1069.93 1952.11 1161.49 1969.62Z" fill="#2F333F"/>
<path d="M938.956 1218.84L1565.28 1218.84L1565.28 1665.75L938.956 1665.75L938.956 1218.84Z" fill="white"/>
<path d="M1314.39 1267.7L1314.8 1267.7C1314.85 1267.7 1314.89 1267.75 1314.89 1267.8L1314.89 1271.78C1314.89 1271.83 1314.85 1271.87 1314.8 1271.87L1314.39 1271.87C1314.34 1271.87 1314.3 1271.83 1314.3 1271.78L1314.3 1267.8C1314.3 1267.75 1314.34 1267.7 1314.39 1267.7Z" fill="white"/>
<path d="M938.961 1665.75L796.682 1609.53L796.682 1162.62L938.961 1218.84L938.961 1665.75Z" fill="#CADDE1"/>
<path d="M655.566 1667.56C656.082 1684.74 671.093 1701.2 688.563 1705.71C709.63 1711.14 731.868 1703.69 751.301 1693.92C770.972 1684.01 789.314 1671.67 805.891 1657.17C821.313 1643.68 832.19 1634.89 852.633 1633.46C872.346 1648.45 888.489 1667.62 899.9 1689.59C906.966 1703.22 911.554 1721.39 901.209 1732.73C891.131 1743.79 871.903 1740.93 860.904 1730.79C849.906 1720.65 845.051 1705.67 840.628 1691.38C820.926 1699.47 806.125 1717.23 798.769 1737.2C791.414 1757.18 790.954 1779.19 794.287 1800.21C796.388 1813.46 799.926 1827.23 795.845 1840.01C791.763 1852.8 775.972 1862.88 764.734 1855.55C758.819 1851.69 756.168 1844.5 754.107 1837.74C748.588 1819.69 744.572 1801.22 742.1 1782.5C740.999 1774.17 737.98 1763.53 729.584 1763.05C728.812 1763.01 728.039 1763.08 727.285 1763.25C725.706 1773.24 725.761 1783.42 727.447 1793.39C728.858 1802.29 731.24 1811.54 728.494 1820.12C725.749 1828.7 715.147 1835.48 707.599 1830.55C703.625 1827.96 701.846 1823.13 700.461 1818.6C696.756 1806.48 697.092 1766.82 695.434 1754.26C694.141 1749.7 691.358 1745.62 687.183 1746.81C686.261 1747.08 685.431 1747.6 684.782 1748.31C685 1750.6 685.277 1752.9 685.637 1755.18C687.048 1764.08 689.429 1773.33 686.684 1781.91C683.938 1790.5 673.337 1797.27 665.789 1792.35C661.815 1789.76 660.036 1784.93 658.651 1780.39C656.934 1774.77 656.088 1763.24 655.507 1751.23C649.197 1725.04 651.576 1695.44 655.566 1667.56Z" fill="#2F333F"/>
<path d="M783.291 1305.57C787.984 1298.43 792.784 1291.37 797.692 1284.39C807.567 1270.39 818.575 1256.14 834.211 1249.13C854.632 1239.97 880.864 1246.24 894.927 1263.64C907.196 1278.83 909.222 1301.27 900.74 1318.72C900.085 1319.84 899.42 1320.96 898.787 1322.09L899.927 1320.25C899.314 1321.41 898.655 1322.53 897.95 1323.63C886.055 1345.11 877.637 1367.99 871.632 1391.75C855.335 1350.78 823.102 1319.41 783.291 1305.57Z" fill="white"/>
<path d="M660.652 1623.01C676.583 1521.87 711.631 1424.68 763.925 1336.64C809.935 1355.8 848.95 1389.95 863.262 1435.48C858.167 1471.99 857.056 1509.82 856.649 1547.42C816.002 1616.48 736.746 1637.04 660.652 1623.01Z" fill="white"/>
<path d="M856.184 1599.85C856.157 1602.02 856.15 1604.23 856.117 1606.4C855.649 1636.94 853.713 1669.26 836.571 1694.55C817.838 1722.19 784.325 1736.06 751.567 1742.6C730.431 1746.82 707.167 1748.28 688.587 1737.36C663.731 1722.74 656.575 1692.87 656.798 1662.72C730.443 1669.03 805.209 1649.45 856.184 1599.85Z" fill="white"/>
<path d="M659.286 1631.66C659.705 1628.77 660.205 1625.9 660.652 1623.01C736.746 1637.04 816.001 1616.49 856.648 1547.43C856.459 1565.02 856.395 1582.53 856.181 1599.85C805.21 1649.45 730.441 1669.04 656.802 1662.73C656.926 1652.33 657.756 1641.95 659.286 1631.66V1631.66Z" fill="#2F333F"/>
<path d="M763.929 1336.65C770.165 1326.15 776.583 1315.76 783.294 1305.56C823.104 1319.41 855.337 1350.78 871.633 1391.75C868.054 1406.16 865.26 1420.76 863.265 1435.48C848.953 1389.95 809.938 1355.81 763.929 1336.65Z" fill="#2F333F"/>
<path d="M1642.57 1317.12C1635.35 1320.64 1628.07 1324.05 1620.72 1327.36C1605.97 1333.97 1590.12 1340.24 1573.31 1338.49C1551.35 1336.22 1530.95 1318.78 1526.08 1298.12C1524.09 1289.3 1524.82 1280.09 1528.15 1271.69C1531.48 1263.29 1537.27 1256.09 1544.76 1251.03C1545.82 1250.43 1546.89 1249.85 1547.94 1249.24L1546.14 1250.18C1547.17 1249.54 1548.24 1248.95 1549.34 1248.4C1568.76 1236.75 1586.47 1222.48 1601.97 1205.98C1598.62 1246.67 1613.47 1287.16 1642.57 1317.12Z" fill="white"/>
<path d="M1690.36 1073.31C1694.06 1066.57 1697.75 1059.85 1701.43 1053.15C1755.6 1084.75 1798.9 1132.05 1825.6 1188.79C1816.41 1197.71 1806.96 1206.38 1797.24 1214.8C1781.36 1153.74 1749.36 1098.01 1690.36 1073.31Z" fill="#2F333F"/>
<path d="M1628.24 1174.72C1648.51 1147.74 1665.84 1117.8 1682.45 1087.72C1685.1 1082.91 1687.74 1078.11 1690.36 1073.31C1749.37 1098.01 1781.36 1153.74 1797.25 1214.8C1759.05 1247.95 1717.42 1276.93 1673.06 1301.24C1640.8 1264.07 1621.18 1218.14 1628.24 1174.72Z" fill="white"/>
<path d="M1701.43 1053.15C1702.79 1050.67 1704.15 1048.2 1705.51 1045.74C1771.86 1029.89 1846.21 1049.45 1908.38 1089.33C1903.77 1097.65 1898.55 1105.62 1892.77 1113.16C1891.15 1115.29 1889.47 1117.37 1887.82 1119.48C1868.7 1143.98 1847.91 1167.14 1825.6 1188.78C1798.9 1132.05 1755.6 1084.75 1701.43 1053.15V1053.15Z" fill="white"/>
<path d="M1673.06 1301.24C1663.03 1306.75 1652.89 1312.08 1642.57 1317.12C1613.47 1287.16 1598.62 1246.67 1601.97 1205.98C1611.33 1196.09 1620.11 1185.65 1628.24 1174.73C1621.18 1218.14 1640.8 1264.07 1673.06 1301.24Z" fill="#2F333F"/>
<path d="M1708.4 1040.5C1713.96 1030.23 1720.16 1020.31 1726.97 1010.82C1726.74 1010.71 1726.52 1010.63 1726.3 1010.53C1715.52 989.601 1709.58 966.525 1708.91 942.998C1708.57 928.687 1712.38 911.894 1726.4 907.648C1740.06 903.513 1755.76 914.893 1761.08 928.255C1766.39 941.616 1760.92 967.497 1774.37 970.503C1824.42 981.68 1849.78 903.841 1849.78 903.841C1853.65 892.181 1856.49 879.424 1865.61 871.061C1874.72 862.698 1893 862.039 1899.74 873.254C1903.28 879.156 1902.51 886.199 1901.41 892.61C1898.49 909.69 1894.04 926.474 1888.12 942.761C1885.48 949.989 1883.55 959.982 1890.74 964.335C1891.4 964.727 1892.11 965.036 1892.85 965.254C1898.55 957.968 1902.91 949.726 1905.73 940.913C1908.33 933.082 1910.23 924.513 1916.36 918.897C1922.48 913.281 1934.76 912.837 1939.28 920.369C1941.66 924.333 1941.14 929.063 1940.4 933.37C1938.43 944.875 1921 976.645 1917.03 987.544C1916.2 991.826 1916.89 996.426 1921.08 997.443C1921.99 997.661 1922.94 997.635 1923.84 997.37C1924.65 995.417 1925.39 993.433 1926.06 991.43C1928.66 983.598 1930.57 975.03 1936.69 969.414C1942.82 963.798 1955.09 963.353 1959.61 970.885C1961.99 974.85 1961.47 979.58 1960.74 983.886C1959.82 989.219 1955.58 998.908 1950.9 1008.85C1945.15 1032.91 1930.28 1055.6 1914.72 1076.16C1912.85 1080.67 1910.73 1085.06 1908.38 1089.33C1846.22 1049.46 1771.87 1029.89 1705.52 1045.74C1706.48 1044 1707.44 1042.23 1708.4 1040.5ZM1916.31 1072.07C1915.84 1073.36 1915.34 1074.65 1914.82 1075.93C1915.42 1074.68 1915.92 1073.4 1916.31 1072.07V1072.07Z" fill="#2F333F"/>
<path d="M1093.52 1294.35L1093.52 1382.06C1093.52 1395.74 1107.2 1406.96 1124.75 1408.29C1125.89 1408.37 1127.04 1408.42 1128.22 1408.42L1443.93 1408.42C1463.07 1408.42 1478.62 1396.61 1478.62 1382.06L1478.62 1294.35C1478.62 1279.8 1463.07 1267.99 1443.93 1267.99L1128.22 1267.99C1109.03 1268 1093.52 1279.81 1093.52 1294.35Z" fill="#2F333F"/>
<path d="M1276.83 1408.42L1294.25 1408.42L1338.8 1328.75C1339.49 1327.54 1338.8 1326.14 1337.24 1325.59C1336.8 1325.43 1336.35 1325.35 1335.88 1325.35C1335.33 1325.32 1334.79 1325.43 1334.29 1325.66C1333.79 1325.89 1333.35 1326.24 1333 1326.67L1276.83 1408.42Z" fill="#FEE735"/>
<path d="M1281.56 1288.8C1368.02 1288.8 1438.38 1342.44 1438.38 1408.43L1431.42 1408.43C1431.42 1345.35 1364.18 1294.08 1281.56 1294.08C1198.89 1294.08 1131.65 1345.35 1131.65 1408.43L1128.23 1408.43C1127 1408.43 1125.88 1408.35 1124.76 1408.28C1124.86 1342.37 1195.17 1288.8 1281.56 1288.8Z" fill="#FEE735"/>
<path d="M1096.29 1457.05L1096.29 1544.76C1096.29 1558.43 1109.97 1569.66 1127.52 1570.98C1128.67 1571.06 1129.81 1571.11 1130.99 1571.11L1446.7 1571.11C1465.85 1571.11 1481.39 1559.3 1481.39 1544.76L1481.39 1457.05C1481.39 1442.5 1465.85 1430.69 1446.7 1430.69L1130.99 1430.69C1111.8 1430.69 1096.29 1442.5 1096.29 1457.05Z" fill="#2F333F"/>
<path d="M1427.03 1575.98L1442.58 1500.05L1450.17 1510.61L1481.39 1510.61L1481.39 1501.07L1457.62 1501.07L1435.86 1470.78L1423.89 1529.25L1395.64 1447.37L1387.8 1497.35L1358.96 1497.35L1350.14 1506.72L1333.48 1459.62L1316.21 1513.37L1308.89 1497.35L1264.9 1497.35L1234.57 1458.69L1225.53 1510.15L1221.31 1497.35L1167.39 1497.35L1146.4 1533.46L1130.99 1430.69L1113.79 1497.92L1097.3 1499.8L1099.18 1509.24L1124.64 1506.32L1128.9 1487.4L1137.87 1571.76L1175.56 1506.89L1211.51 1506.89L1229.29 1560.83L1242.25 1487.11L1257.76 1506.89L1299.97 1506.89L1318.33 1547.06L1334.07 1498.05L1344.91 1528.68L1365.43 1506.89L1398.95 1506.89L1400.27 1498.43L1427.03 1575.98Z" fill="#FEE735"/>
<path d="M309.445 -6.00859e-05L809.303 -1.6387e-05C912.399 -7.37403e-06 996.748 84.3145 996.748 187.353L996.748 306.013C996.743 351.675 979.977 395.749 949.628 429.88L996.748 541.925L890.234 474.888C864.997 487.071 837.329 493.388 809.303 493.366L309.445 493.366C206.349 493.366 122 409.051 122 306.013L122 187.353C121.998 84.304 206.349 -6.90989e-05 309.445 -6.00859e-05Z" fill="white"/>
<path d="M522.544 110.242L522.544 231.766L402.984 231.765L402.985 118.343C402.985 87.0638 354.352 87.0119 354.351 118.343L354.35 389.747C354.35 421.024 402.983 421.076 402.984 389.747L402.984 280.376L522.543 280.376L522.543 383.672C522.543 414.951 571.176 415.002 571.176 383.672L571.178 110.242C571.178 78.9628 522.544 78.9097 522.544 110.242Z" fill="#2F333F"/>
<path d="M609.111 120.579L609.11 383.883C609.11 415.161 657.744 415.213 657.744 383.884L657.745 120.579C657.745 89.3013 609.111 89.2505 609.111 120.579Z" fill="#2F333F"/>
<path d="M719.92 111.855C719.368 175.995 718.818 240.134 718.27 304.272C718.002 335.56 766.635 335.589 766.904 304.272C767.454 240.134 768.003 175.995 768.553 111.855C768.821 80.5681 720.192 80.5392 719.92 111.855Z" fill="#2F333F"/>
<path d="M743.405 363C712.112 363 712.06 411.609 743.405 411.61C774.703 411.61 774.755 363 743.405 363Z" fill="#2F333F"/>
<path fill-rule="evenodd" clip-rule="evenodd" d="M2318 5560.38V2320.8C1978.36 2120.98 1582.56 2006.38 1160 2006.38C736.609 2006.38 340.09 2121.43 0 2321.98V5560.38V6264.78V11081V11081.4V27264H2318V11081.4V11081V6265.96V5560.38Z" fill="#32345A"/>
</svg>
