<svg xmlns="http://www.w3.org/2000/svg" width="820.966" height="857.157" viewBox="0 0 820.966 857.157">
  <g id="Gruppe_18" data-name="Gruppe 18" transform="translate(-221.846 -180.4)">
    <rect id="Rechteck_2" data-name="Rechteck 2" width="250.826" height="179.063" transform="translate(491.882 646.225)" fill="#fff"/>
    <path id="Pfad_1" data-name="Pfad 1" d="M905.46,1598.68v79.266H874.9V1594.86Z" transform="translate(-163.287 -763.459)" fill="#2f333f"/>
    <g id="Gruppe_3" data-name="Gruppe 3" transform="translate(760.498 386.303)">
      <g id="Gruppe_2" data-name="Gruppe 2">
        <g id="Gruppe_1" data-name="Gruppe 1">
          <path id="Pfad_2" data-name="Pfad 2" d="M705.413,734.461h31.441v-70.79a18.329,18.329,0,0,1-14.564-17.712c0-10.043,8.422-18.184,18.815-18.184s18.816,8.141,18.816,18.184a18.331,18.331,0,0,1-14.564,17.712v70.79h5.128a9.488,9.488,0,0,1,9.488,9.488V848.326a9.488,9.488,0,0,1-9.488,9.488H705.412a9.489,9.489,0,0,1-9.488-9.487V743.949a9.489,9.489,0,0,1,9.487-9.488Z" transform="translate(-695.925 -627.775)" fill="#cadde1"/>
        </g>
      </g>
    </g>
    <path id="Pfad_3" data-name="Pfad 3" d="M1057.746,1215.043c-5.253,0-56.979-22.526-56.979-22.526H749.943l56.979,22.526Z" transform="translate(-258.061 -546.293)" fill="#c1d1d3"/>
    <rect id="Rechteck_3" data-name="Rechteck 3" width="172.379" height="33.903" transform="translate(565.709 623.389)" fill="#2f333f"/>
    <path id="Pfad_4" data-name="Pfad 4" d="M903.034,652.168c82.276,0,149.539,49.394,154.417,111.726l.295.01V890.13h-307.8v-136.2C760.795,696.378,825.2,652.168,903.034,652.168Z" transform="translate(-258.06 -254.638)" fill="#fff"/>
    <path id="Pfad_5" data-name="Pfad 5" d="M862.078,778.742c51.9,0,94.326,31.159,97.4,70.475l.184.006v79.623H765.509V842.931C772.354,806.629,812.98,778.742,862.078,778.742Z" transform="translate(-167.145 -322.957)" fill="#2f333f"/>
    <rect id="Rechteck_4" data-name="Rechteck 4" width="14.325" height="45.84" rx="5" transform="translate(644.974 527.888)" fill="#fee735"/>
    <rect id="Rechteck_5" data-name="Rechteck 5" width="14.325" height="45.84" rx="5" transform="translate(755.277 527.888)" fill="#fee735"/>
    <g id="Gruppe_6" data-name="Gruppe 6" transform="translate(478.575 386.303)">
      <g id="Gruppe_5" data-name="Gruppe 5">
        <g id="Gruppe_4" data-name="Gruppe 4">
          <path id="Pfad_6" data-name="Pfad 6" d="M1363.031,734.461h-31.439v-70.79a18.33,18.33,0,0,0,14.564-17.712c0-10.043-8.422-18.184-18.815-18.184s-18.817,8.141-18.817,18.184a18.331,18.331,0,0,0,14.565,17.712v70.79h-5.128a9.488,9.488,0,0,0-9.488,9.488V848.326a9.488,9.488,0,0,0,9.488,9.488h45.073a9.488,9.488,0,0,0,9.488-9.487V743.949a9.489,9.489,0,0,0-9.489-9.488Z" transform="translate(-1308.472 -627.775)" fill="#cadde1"/>
        </g>
      </g>
    </g>
    <path id="Pfad_7" data-name="Pfad 7" d="M826.839,1899.17a8.79,8.79,0,0,0,.569,2.485c1.529,3.763,5.786,5.445,9.453,7.193a52.425,52.425,0,0,1,28.884,39.8c.176,1.348.2,2.949-.864,3.792a4.155,4.155,0,0,1-2.383.639,852.2,852.2,0,0,1-101.551-.131C770.644,1923.743,796.288,1900.726,826.839,1899.17Z" transform="translate(-71.216 -927.711)" fill="#fff"/>
    <path id="Pfad_8" data-name="Pfad 8" d="M850.144,1855.649a7.174,7.174,0,0,1-3.845-2.339c-1.654-2.084-1.591-5-1.441-7.66q1.266-22.372,3.36-44.687c.329-3.5.708-7,1.067-10.505q2.839-27.665,6.941-55.179a67.389,67.389,0,0,1,45.494-14.6,40.408,40.408,0,0,1,18.472,6.92,299.338,299.338,0,0,1,5.115,62.858c-.052,2.124-.145,4.248-.239,6.37C888.4,1789.811,862.8,1821.324,850.144,1855.649Z" transform="translate(-169.363 -831.322)" fill="#fff"/>
    <path id="Pfad_9" data-name="Pfad 9" d="M920.424,1885.073c-.031.71-.042,1.42-.08,2.13-.035.664-.069,1.335-.077,2.005a16.57,16.57,0,0,0,.075,1.817c-30.551,1.557-56.2,24.572-65.893,53.778-1.486-.092-2.973-.162-4.458-.26a22.483,22.483,0,0,1-4.491-.649C858.155,1909.572,883.758,1878.059,920.424,1885.073Z" transform="translate(-164.719 -919.57)" fill="#2f333f"/>
    <path id="Pfad_10" data-name="Pfad 10" d="M1175.22,1601.1v79.264h-30.56V1597.28Z" transform="translate(-557.203 -764.765)" fill="#2f333f"/>
    <path id="Pfad_11" data-name="Pfad 11" d="M1082.631,1907.98a8.8,8.8,0,0,0,.569,2.485c1.529,3.763,5.786,5.445,9.453,7.193a52.425,52.425,0,0,1,28.884,39.8c.176,1.348.2,2.949-.864,3.793a4.156,4.156,0,0,1-2.383.639,852.144,852.144,0,0,1-101.551-.131C1026.435,1932.552,1052.08,1909.54,1082.631,1907.98Z" transform="translate(-444.736 -932.466)" fill="#fff"/>
    <path id="Pfad_12" data-name="Pfad 12" d="M1105.934,1864.459a7.18,7.18,0,0,1-3.845-2.339c-1.654-2.084-1.591-5-1.441-7.66q1.266-22.372,3.36-44.687c.329-3.5.708-7,1.067-10.505q2.839-27.665,6.941-55.179a67.392,67.392,0,0,1,45.494-14.6,40.416,40.416,0,0,1,18.472,6.92,299.368,299.368,0,0,1,5.115,62.858c-.052,2.124-.145,4.248-.239,6.37C1144.19,1798.625,1118.586,1830.134,1105.934,1864.459Z" transform="translate(-542.879 -836.077)" fill="#fff"/>
    <path id="Pfad_13" data-name="Pfad 13" d="M1176.214,1893.893c-.031.71-.042,1.42-.08,2.13-.035.664-.069,1.335-.077,2.005a16.447,16.447,0,0,0,.075,1.817c-30.551,1.557-56.2,24.572-65.893,53.777-1.486-.092-2.973-.161-4.458-.259a22.492,22.492,0,0,1-4.491-.649C1113.943,1918.387,1139.546,1886.879,1176.214,1893.893Z" transform="translate(-538.236 -924.33)" fill="#2f333f"/>
    <rect id="Rechteck_6" data-name="Rechteck 6" width="250.826" height="179.063" transform="translate(548.859 668.751)" fill="#fff"/>
    <rect id="Rechteck_7" data-name="Rechteck 7" width="0.239" height="1.671" rx="0.083" transform="translate(699.171 688.329)" fill="#fff"/>
    <path id="Pfad_14" data-name="Pfad 14" d="M1351.9,1394.108l-56.979-22.526V1192.52l56.979,22.526Z" transform="translate(-803.038 -546.295)" fill="#cadde1"/>
    <g id="Gruppe_8" data-name="Gruppe 8" transform="translate(433.789 679.203)">
      <path id="Pfad_15" data-name="Pfad 15" d="M1324.082,1616.069c.207,6.886,6.218,13.482,13.214,15.286,8.437,2.176,17.343-.807,25.125-4.725a104.825,104.825,0,0,0,21.862-14.721c6.176-5.4,10.532-8.929,18.719-9.5a67.1,67.1,0,0,1,18.929,22.49c2.83,5.461,4.667,12.739.524,17.285-4.036,4.429-11.736,3.286-16.141-.777s-6.349-10.067-8.12-15.791c-7.89,3.241-13.818,10.356-16.763,18.359s-3.13,16.822-1.795,25.246c.841,5.309,2.258,10.826.624,15.947s-7.958,9.163-12.459,6.225c-2.369-1.546-3.43-4.428-4.256-7.134a137.2,137.2,0,0,1-4.808-22.134c-.441-3.339-1.65-7.6-5.012-7.793a3.427,3.427,0,0,0-.921.08,37.424,37.424,0,0,0,.065,12.075c.565,3.565,1.519,7.272.419,10.71s-5.345,6.155-8.368,4.181c-1.592-1.038-2.3-2.974-2.859-4.791-1.484-4.854-1.349-20.743-2.013-25.778-.518-1.826-1.632-3.461-3.3-2.986a2.116,2.116,0,0,0-.961.6c.087.92.2,1.841.342,2.755.565,3.566,1.519,7.272.419,10.711s-5.345,6.154-8.368,4.181c-1.591-1.038-2.3-2.974-2.859-4.791-.688-2.251-1.026-6.873-1.259-11.684C1321.532,1639.1,1322.485,1627.244,1324.082,1616.069Z" transform="translate(-1322.503 -1446.736)" fill="#2f333f"/>
      <g id="Gruppe_7" data-name="Gruppe 7" transform="translate(2.07)">
        <path id="Pfad_16" data-name="Pfad 16" d="M1323.692,1288.468q2.819-4.287,5.767-8.486c3.955-5.609,8.363-11.317,14.625-14.127a20.453,20.453,0,0,1,26.643,27.884c-.262.449-.529.9-.782,1.35l.457-.736q-.368.694-.792,1.355A113.266,113.266,0,0,0,1359.07,1323,59.426,59.426,0,0,0,1323.692,1288.468Z" transform="translate(-1273.031 -1264.173)" fill="#fff"/>
        <path id="Pfad_17" data-name="Pfad 17" d="M1360.785,1458.76a323.23,323.23,0,0,1,41.358-114.74c18.426,7.676,34.05,21.359,39.781,39.6-2.04,14.629-2.485,29.787-2.648,44.851C1423,1456.141,1391.258,1464.379,1360.785,1458.76Z" transform="translate(-1359.237 -1307.271)" fill="#fff"/>
        <path id="Pfad_18" data-name="Pfad 18" d="M1446.8,1573.15c-.01.871-.013,1.754-.027,2.623-.187,12.238-.963,25.188-7.827,35.32-7.5,11.075-20.923,16.631-34.042,19.251-8.464,1.69-17.781,2.276-25.222-2.1-9.954-5.857-12.82-17.823-12.73-29.9C1396.449,1600.871,1426.388,1593.023,1446.8,1573.15Z" transform="translate(-1366.95 -1430.944)" fill="#fff"/>
        <path id="Pfad_19" data-name="Pfad 19" d="M1367.535,1561.27c.168-1.157.368-2.31.547-3.466,30.473,5.62,62.213-2.616,78.491-30.284-.076,7.048-.1,14.062-.187,21-20.412,19.873-50.355,27.719-79.846,25.191a92.127,92.127,0,0,1,.995-12.446Z" transform="translate(-1366.534 -1406.315)" fill="#2f333f"/>
        <path id="Pfad_20" data-name="Pfad 20" d="M1353.5,1329.415c2.5-4.205,5.068-8.367,7.755-12.454a59.433,59.433,0,0,1,35.377,34.531,164.461,164.461,0,0,0-3.351,17.523C1387.553,1350.775,1371.928,1337.092,1353.5,1329.415Z" transform="translate(-1310.598 -1292.666)" fill="#2f333f"/>
      </g>
    </g>
    <g id="hand" transform="translate(783.543 526.899)">
      <g id="Gruppe_9" data-name="Gruppe 9" transform="translate(0 70.29)">
        <path id="Pfad_21" data-name="Pfad 21" d="M729.79,1274.8q-4.335,2.117-8.747,4.106c-5.908,2.646-12.257,5.157-18.989,4.46-8.791-.911-16.963-7.9-18.914-16.178a18.01,18.01,0,0,1,7.481-18.867c.425-.238.853-.472,1.273-.716l-.722.378q.623-.385,1.283-.717a98.263,98.263,0,0,0,21.077-16.993A57.319,57.319,0,0,0,729.79,1274.8Z" transform="translate(-682.7 -1163.862)" fill="#fff"/>
        <path id="Pfad_22" data-name="Pfad 22" d="M523.441,1105.3q2.22-4.05,4.43-8.077a124.056,124.056,0,0,1,49.726,54.346q-5.519,5.364-11.354,10.423C559.881,1137.524,547.069,1115.193,523.441,1105.3Z" transform="translate(-457.209 -1092.046)" fill="#2f333f"/>
        <path id="Pfad_23" data-name="Pfad 23" d="M548.684,1155.406c8.117-10.814,15.057-22.807,21.707-34.859q1.6-2.891,3.171-5.776c23.628,9.9,36.44,32.225,42.8,56.689a284.628,284.628,0,0,1-49.733,34.636C553.713,1191.2,545.855,1172.8,548.684,1155.406Z" transform="translate(-507.331 -1101.52)" fill="#fff"/>
        <path id="Pfad_24" data-name="Pfad 24" d="M451.412,1091.152q.818-1.487,1.637-2.969c26.571-6.351,56.346,1.489,81.24,17.466a77.043,77.043,0,0,1-6.252,9.549c-.648.852-1.32,1.687-1.979,2.531a270.88,270.88,0,0,1-24.921,27.766A124.056,124.056,0,0,0,451.412,1091.152Z" transform="translate(-380.75 -1085.978)" fill="#fff"/>
        <path id="Pfad_25" data-name="Pfad 25" d="M684.822,1253.752c-4.017,2.205-8.08,4.341-12.213,6.36a57.32,57.32,0,0,1-16.258-44.527,138.684,138.684,0,0,0,10.523-12.524C664.044,1220.458,671.9,1238.859,684.822,1253.752Z" transform="translate(-625.52 -1149.174)" fill="#2f333f"/>
      </g>
      <g id="Gruppe_10" data-name="Gruppe 10" transform="translate(72.301 0)">
        <path id="Pfad_26" data-name="Pfad 26" d="M406.469,1003.652a111.035,111.035,0,0,1,7.434-11.895c-.092-.041-.177-.074-.268-.115a63.066,63.066,0,0,1-6.965-27.057c-.134-5.734,1.39-12.463,7-14.164,5.47-1.657,11.761,2.9,13.888,8.256s-.064,15.723,5.326,16.927c20.041,4.477,30.2-26.71,30.2-26.71,1.551-4.672,2.687-9.784,6.339-13.134s10.971-3.615,13.669.879c1.42,2.365,1.11,5.187.669,7.755a116.106,116.106,0,0,1-5.324,20.094c-1.054,2.9-1.829,6.9,1.05,8.644a3.755,3.755,0,0,0,.845.368,31.269,31.269,0,0,0,5.158-9.753c1.042-3.138,1.8-6.571,4.257-8.821s7.369-2.428,9.18.59c.954,1.588.746,3.484.449,5.209-.789,4.61-7.771,17.339-9.361,21.706-.333,1.716-.057,3.559,1.622,3.966a2.15,2.15,0,0,0,1.107-.029c.322-.782.621-1.577.888-2.38,1.042-3.138,1.8-6.571,4.257-8.821s7.368-2.428,9.18.59c.954,1.588.746,3.484.45,5.209-.368,2.136-2.065,6.019-3.938,10-2.3,9.641-8.26,18.732-14.49,26.971a53.89,53.89,0,0,1-2.538,5.277c-24.894-15.977-54.669-23.815-81.24-17.466C405.7,1005.056,406.082,1004.342,406.469,1003.652Zm83.262,12.65q-.285.775-.6,1.544a10.708,10.708,0,0,0,.6-1.546Z" transform="translate(-405.315 -933.255)" fill="#2f333f"/>
      </g>
    </g>
    <g id="Gruppe_15" data-name="Gruppe 15" transform="translate(610.755 688.446)">
      <path id="Pfad_27" data-name="Pfad 27" d="M825.36,1294.815v35.144c0,5.479,5.477,9.977,12.5,10.507.456.031.918.051,1.39.051H965.686c7.668,0,13.894-4.73,13.894-10.558v-35.144c0-5.828-6.226-10.56-13.894-10.56H839.253C831.569,1284.257,825.36,1288.989,825.36,1294.815Z" transform="translate(-825.36 -1284.255)" fill="#2f333f"/>
      <path id="Pfad_28" data-name="Pfad 28" d="M946.782,1367.473h6.973l17.842-31.922c.276-.485,0-1.044-.626-1.266a1.652,1.652,0,0,0-.543-.1,1.4,1.4,0,0,0-1.153.529Z" transform="translate(-873.368 -1311.206)" fill="#fee735"/>
      <g id="Gruppe_12" data-name="Gruppe 12" transform="translate(12.513 8.337)">
        <path id="Pfad_29" data-name="Pfad 29" d="M923.164,1302.37c34.621,0,62.8,21.49,62.8,47.93h-2.786c0-25.273-26.927-45.814-60.013-45.814-33.107,0-60.036,20.542-60.036,45.814h-1.371c-.492,0-.942-.031-1.389-.062C860.411,1323.831,888.564,1302.37,923.164,1302.37Z" transform="translate(-860.368 -1302.37)" fill="#fee735"/>
      </g>
      <g id="Gruppe_14" data-name="Gruppe 14" transform="translate(1.114 65.189)">
        <path id="Pfad_30" data-name="Pfad 30" d="M822.941,1436.455V1471.6c0,5.48,5.477,9.978,12.506,10.507.46.033.918.052,1.388.052H963.266c7.67,0,13.894-4.73,13.894-10.559v-35.143c0-5.828-6.224-10.561-13.894-10.561H836.833C829.15,1425.892,822.941,1430.624,822.941,1436.455Z" transform="translate(-822.941 -1425.894)" fill="#2f333f"/>
        <g id="Gruppe_13" data-name="Gruppe 13" transform="translate(0.401 0)">
          <path id="Pfad_31" data-name="Pfad 31" d="M954.991,1484.109l6.226-30.422,3.038,4.23H976.76v-3.823h-9.522l-8.713-12.136-4.791,23.427-11.317-32.807-3.138,20.026h-11.55l-3.531,3.756-6.674-18.872-6.913,21.535-2.932-6.417H890.063l-12.147-15.489-3.622,20.616-1.69-5.128H851.01l-8.4,14.469-6.173-41.178-6.887,26.936-6.6.756.752,3.781,10.2-1.17,1.7-7.582,3.6,33.8,15.094-25.993h14.394l7.122,21.613,5.189-29.538,6.213,7.925h16.9l7.352,16.094,6.305-19.638,4.34,12.274,8.217-8.732h13.425l.531-3.388Z" transform="translate(-822.942 -1425.895)" fill="#fee735"/>
        </g>
      </g>
    </g>
    <path id="Pfad_32" data-name="Pfad 32" d="M1319.7,180.4h200.18a75.288,75.288,0,0,1,75.066,75.066V303.01a74.716,74.716,0,0,1-18.865,49.623l18.865,44.9-42.656-26.86a74.384,74.384,0,0,1-32.411,7.4H1319.706a75.288,75.288,0,0,1-75.066-75.066V255.466A75.285,75.285,0,0,1,1319.7,180.4Z" transform="translate(-1022.794)" fill="#fff"/>
    <g id="Gruppe_17" data-name="Gruppe 17" transform="translate(313.846 211.312)">
      <path id="Pfad_33" data-name="Pfad 33" d="M1539.829,259.144v48.691h-47.88V262.39c0-12.533-19.476-12.553-19.476,0V371.133c0,12.532,19.476,12.553,19.476,0V327.311h47.88V368.7c0,12.533,19.476,12.553,19.476,0V259.144C1559.307,246.611,1539.829,246.59,1539.829,259.144Z" transform="translate(-1472.473 -249.736)" fill="#2f333f"/>
      <path id="Pfad_34" data-name="Pfad 34" d="M1694.15,268.141v105.5c0,12.532,19.477,12.553,19.477,0v-105.5C1713.623,255.609,1694.15,255.589,1694.15,268.141Z" transform="translate(-1592.124 -254.593)" fill="#2f333f"/>
      <g id="Gruppe_16" data-name="Gruppe 16" transform="translate(145.738 0.647)">
        <path id="Pfad_35" data-name="Pfad 35" d="M1789.785,260.549q-.331,38.548-.66,77.1c-.107,12.536,19.369,12.548,19.477,0q.33-38.548.66-77.1C1809.368,248.013,1789.9,248,1789.785,260.549Z" transform="translate(-1789.124 -251.143)" fill="#2f333f"/>
        <path id="Pfad_36" data-name="Pfad 36" d="M1799.968,490.216c-12.532,0-12.553,19.476,0,19.476C1812.5,509.692,1812.524,490.216,1799.968,490.216Z" transform="translate(-1789.9 -380.183)" fill="#2f333f"/>
      </g>
    </g>
  </g>
</svg>
