<svg width="1920" height="2358" viewBox="0 0 1920 2358" fill="none" xmlns="http://www.w3.org/2000/svg">
<path fill-rule="evenodd" clip-rule="evenodd" d="M959.5 740C1311.24 740 1640.04 838.188 1920 1008.65V2358H0V1008.04C279.74 837.955 608.181 740 959.5 740Z" fill="#32345A"/>
<g clip-path="url(#clip0)">
<path d="M424.467 487.05L640.414 447.808L668.415 601.896L452.468 641.138L424.467 487.05Z" fill="white"/>
<path d="M669.508 610.526L681.903 678.737L655.592 683.518L642.599 612.02L669.508 610.526Z" fill="#2F333F"/>
<path d="M639.936 311.676L667.005 306.757L655.935 245.841C648.46 245.544 641.976 240.303 640.627 232.878C639.056 224.235 645.034 215.912 653.982 214.286C662.929 212.66 671.454 218.348 673.025 226.99C674.374 234.416 670.148 241.602 663.256 244.51L674.326 305.427L678.74 304.624C680.907 304.231 683.141 304.713 684.951 305.966C686.762 307.219 688 309.139 688.393 311.304L704.715 401.124C705.109 403.289 704.625 405.522 703.371 407.332C702.118 409.141 700.196 410.379 698.03 410.773L659.225 417.824C657.059 418.218 654.825 417.735 653.015 416.482C651.205 415.229 649.967 413.309 649.573 411.144L633.251 321.325C632.858 319.16 633.341 316.927 634.595 315.117C635.848 313.308 637.769 312.07 639.936 311.676V311.676Z" fill="#CADDE1"/>
<path d="M692.989 458.277C688.467 459.099 640.411 447.808 640.411 447.808L424.466 487.05L477.043 497.519L692.989 458.277Z" fill="#C1D1D3"/>
<path d="M484.455 455.848L632.863 428.879L638.165 458.053L489.756 485.022L484.455 455.848Z" fill="#2F333F"/>
<path d="M517.38 249.089C588.215 236.217 653.849 268.199 667.796 321.074L668.051 321.036L687.789 429.658L422.788 477.814L401.49 360.608C401.832 309.387 450.366 261.267 517.38 249.089Z" fill="white"/>
<path d="M569.502 291.403C614.184 283.284 655.585 303.459 664.382 336.81L664.541 336.786L676.992 405.304L509.834 435.68L496.399 361.748C496.616 329.438 527.231 299.085 569.502 291.403Z" fill="#2F333F"/>
<path d="M539.746 360.906L548.116 359.384C549.211 359.186 550.259 359.911 550.458 361.005L556.906 396.491C557.105 397.584 556.379 398.632 555.285 398.831L546.914 400.352C545.82 400.551 544.772 399.826 544.573 398.732L538.124 363.246C537.926 362.152 538.651 361.104 539.746 360.906Z" fill="#FEE735"/>
<path d="M634.711 343.649L643.081 342.128C644.175 341.929 645.224 342.654 645.422 343.748L651.871 379.234C652.07 380.328 651.344 381.375 650.25 381.574L641.879 383.095C640.785 383.294 639.736 382.569 639.538 381.475L633.089 345.989C632.89 344.895 633.616 343.848 634.711 343.649Z" fill="#FEE735"/>
<path d="M436.02 348.732L408.951 353.651L397.882 292.734C404.774 289.826 409 282.64 407.651 275.214C406.08 266.572 397.556 260.884 388.609 262.51C379.661 264.136 373.682 272.459 375.252 281.102C376.601 288.527 383.087 293.767 390.561 294.065L401.631 354.981L397.216 355.783C395.049 356.177 393.128 357.415 391.874 359.224C390.62 361.034 390.137 363.267 390.53 365.432L406.852 455.251C407.246 457.417 408.484 459.337 410.294 460.59C412.105 461.843 414.339 462.325 416.505 461.932L455.31 454.88C457.476 454.486 459.397 453.248 460.651 451.439C461.905 449.629 462.388 447.396 461.994 445.231L445.672 355.412C445.279 353.246 444.041 351.326 442.23 350.073C440.42 348.821 438.186 348.338 436.02 348.732V348.732Z" fill="#CADDE1"/>
<path d="M702.39 725.658C702.582 726.38 702.877 727.071 703.268 727.708C705.173 730.707 709.101 731.488 712.531 732.418C726.962 736.334 739.069 747.91 743.622 762.148C743.985 763.28 744.257 764.654 743.471 765.547C742.987 766.096 742.23 766.297 741.52 766.469C712.709 773.461 683.507 778.728 654.069 782.245C657.852 755.594 676.331 731.777 702.39 725.658Z" fill="white"/>
<path d="M646.223 782.862C644.878 782.798 643.589 782.304 642.547 781.452C640.797 779.917 640.395 777.394 640.108 775.085C638.502 762.119 637.137 749.125 636.013 736.105C635.748 733.038 635.527 729.968 635.289 726.898C634.034 710.731 633.15 694.542 632.636 678.33C642.115 667.487 655.235 660.487 669.521 658.649C675.311 658.184 681.121 659.355 686.507 661.714C693.115 678.927 697.886 696.789 700.74 715.004C701.028 716.84 701.279 718.682 701.53 720.524C668.866 720.223 651.751 751.345 646.223 782.862Z" fill="white"/>
<path d="M701.531 720.523C701.615 721.139 701.717 721.751 701.796 722.368C701.869 722.945 701.945 723.527 702.043 724.106C702.131 724.629 702.247 725.147 702.391 725.658C676.332 731.777 657.852 755.594 654.071 782.244C652.777 782.397 651.486 782.57 650.192 782.718C648.877 782.899 647.548 782.948 646.224 782.862C651.751 751.344 668.867 720.223 701.531 720.523Z" fill="#2F333F"/>
<path d="M562.789 630.909L575.184 699.119L548.873 703.9L535.881 632.403L562.789 630.909Z" fill="#2F333F"/>
<path d="M601.669 747.568C601.861 748.29 602.157 748.981 602.548 749.618C604.452 752.617 608.38 753.398 611.811 754.328C626.242 758.244 638.349 769.82 642.901 784.057C643.264 785.19 643.536 786.564 642.75 787.456C642.266 788.005 641.509 788.206 640.799 788.379C611.988 795.371 582.786 800.638 553.348 804.154C557.131 777.504 575.61 753.688 601.669 747.568Z" fill="white"/>
<path d="M545.5 804.772C544.155 804.708 542.867 804.213 541.824 803.361C540.075 801.827 539.672 799.304 539.386 796.995C537.78 784.028 536.415 771.035 535.29 758.015C535.025 754.948 534.805 751.877 534.566 748.808C533.312 732.641 532.427 716.451 531.914 700.239C541.392 689.397 554.512 682.396 568.799 680.558C574.589 680.094 580.398 681.265 585.784 683.623C592.393 700.836 597.163 718.699 600.017 736.914C600.305 738.75 600.557 740.592 600.807 742.433C568.143 742.133 551.028 773.254 545.5 804.772Z" fill="white"/>
<path d="M600.809 742.433C600.893 743.049 600.995 743.662 601.073 744.278C601.147 744.855 601.223 745.437 601.32 746.016C601.408 746.539 601.524 747.057 601.669 747.568C575.609 753.687 557.129 777.504 553.348 804.153C552.054 804.307 550.763 804.48 549.469 804.628C548.155 804.81 546.825 804.858 545.501 804.772C551.029 773.254 568.144 742.133 600.809 742.433Z" fill="#2F333F"/>
<path d="M477.043 497.519L692.99 458.277L720.991 612.366L505.044 651.608L477.043 497.519Z" fill="white"/>
<path d="M609.546 490.844L609.686 490.818C609.704 490.815 609.721 490.827 609.725 490.845L609.974 492.217C609.977 492.235 609.965 492.252 609.947 492.255L609.807 492.281C609.789 492.284 609.772 492.272 609.768 492.254L609.519 490.883C609.516 490.865 609.528 490.847 609.546 490.844Z" fill="white"/>
<path d="M505.043 651.609L452.465 641.139L424.464 487.05L477.042 497.52L505.043 651.609Z" fill="#CADDE1"/>
<path d="M407.449 669.986C408.703 675.88 414.91 680.615 421.216 681.073C428.82 681.626 436.021 677.666 442.108 673.077C448.27 668.43 453.82 663.024 458.628 656.988C463.1 651.371 466.299 647.657 473.258 645.884C480.994 649.817 487.761 655.415 493.072 662.276C496.362 666.533 499.082 672.508 496.226 677.068C493.444 681.51 486.636 681.731 482.208 678.924C477.781 676.117 475.168 671.255 472.748 666.606C466.462 670.629 462.471 677.679 461.187 685.027C459.902 692.376 461.123 699.993 463.589 707.033C465.144 711.47 467.226 715.996 466.62 720.658C466.013 725.321 461.201 729.788 456.867 727.964C454.585 727.004 453.221 724.69 452.087 722.491C449.053 716.613 446.511 710.494 444.486 704.196C443.584 701.392 441.877 697.914 438.952 698.274C438.684 698.309 438.421 698.381 438.172 698.487C438.253 702.029 438.91 705.535 440.116 708.867C441.16 711.847 442.561 714.887 442.152 718.018C441.743 721.148 438.512 724.151 435.601 722.925C434.069 722.281 433.153 720.726 432.391 719.25C430.355 715.305 427.986 701.611 426.627 697.382C425.896 695.891 424.68 694.659 423.315 695.33C423.014 695.481 422.761 695.712 422.581 695.997C422.8 696.776 423.04 697.551 423.307 698.314C424.351 701.294 425.752 704.334 425.343 707.466C424.934 710.597 421.703 713.597 418.792 712.372C417.26 711.728 416.344 710.174 415.582 708.697C414.638 706.868 413.624 702.943 412.671 698.84C408.854 690.203 407.82 679.85 407.449 669.986Z" fill="#2F333F"/>
<path d="M428.806 537.174C429.977 534.421 431.189 531.686 432.444 528.969C434.971 523.524 437.874 517.923 442.826 514.525C449.293 510.087 458.73 510.606 464.669 515.725C469.851 520.192 471.955 527.803 470.124 534.351C469.969 534.779 469.809 535.206 469.662 535.635L469.94 534.929C469.801 535.366 469.644 535.796 469.47 536.22C466.715 544.371 465.245 552.786 464.664 561.355C456.478 548.25 443.399 539.453 428.806 537.174Z" fill="white"/>
<path d="M406.412 654.311C405.568 618.44 411.563 582.736 424.076 549.104C441.14 552.827 456.732 562.157 464.519 576.957C465.05 589.865 467.037 602.979 469.252 615.967C459.565 642.327 433.527 654.379 406.412 654.311Z" fill="white"/>
<path d="M472.375 634.071C472.502 634.822 472.638 635.583 472.762 636.333C474.515 646.893 475.872 658.158 471.547 667.952C466.82 678.656 456.133 685.537 445.249 689.844C438.226 692.623 430.297 694.585 423.206 691.983C413.72 688.5 409.382 678.651 407.57 668.242C433.356 665.803 457.907 654.366 472.375 634.071Z" fill="white"/>
<path d="M406.482 657.377C406.446 656.355 406.438 655.332 406.411 654.309C433.526 654.377 459.564 642.325 469.252 615.969C470.289 622.045 471.364 628.085 472.375 634.073C457.909 654.367 433.357 665.804 407.572 668.242C406.963 664.65 406.599 661.019 406.482 657.377V657.377Z" fill="#2F333F"/>
<path d="M424.076 549.104C425.569 545.094 427.131 541.11 428.806 537.173C443.399 539.452 456.478 548.249 464.663 561.353C464.333 566.548 464.284 571.757 464.519 576.957C456.732 562.157 441.14 552.827 424.076 549.104Z" fill="#2F333F"/>
<path d="M725.791 487.319C723.523 488.985 721.227 490.619 718.902 492.22C714.23 495.422 709.156 498.576 703.251 499.029C695.54 499.62 687.411 494.884 684.437 488.066C683.201 485.151 682.873 481.931 683.495 478.825C684.118 475.72 685.662 472.875 687.927 470.66C688.256 470.389 688.588 470.12 688.912 469.845L688.349 470.283C688.667 469.997 688.998 469.725 689.342 469.466C695.307 464.235 700.52 458.205 704.831 451.546C706.226 465.783 713.881 478.813 725.791 487.319Z" fill="white"/>
<path d="M726.997 400.263C727.849 397.708 728.699 395.16 729.548 392.62C750.206 400.122 768.099 413.717 780.858 431.606C778.249 435.258 775.534 438.84 772.713 442.352C763.409 422.293 748.887 405.083 726.997 400.263Z" fill="#2F333F"/>
<path d="M711.932 439.122C717.229 428.547 721.328 417.14 725.17 405.729C725.784 403.904 726.393 402.082 726.997 400.263C748.887 405.082 763.409 422.292 772.712 442.349C761.619 456.173 749.081 468.773 735.312 479.936C721.86 469.142 712.217 454.535 711.932 439.122Z" fill="white"/>
<path d="M729.548 392.619C729.862 391.681 730.177 390.744 730.493 389.808C752.376 380.185 779.237 382.274 803.168 392.128C802.101 395.285 800.801 398.358 799.279 401.323C798.854 402.158 798.406 402.981 797.971 403.811C792.912 413.457 787.194 422.743 780.857 431.603C768.098 413.715 750.206 400.121 729.548 392.619V392.619Z" fill="white"/>
<path d="M735.314 479.935C732.2 482.461 729.036 484.935 725.793 487.319C713.884 478.813 706.229 465.784 704.833 451.546C707.442 447.548 709.813 443.4 711.934 439.123C712.218 454.534 721.861 469.141 735.314 479.935Z" fill="#2F333F"/>
<path d="M731.16 387.821C732.431 383.93 733.948 380.122 735.7 376.422C735.615 376.402 735.536 376.387 735.452 376.365C730.425 369.825 726.93 362.241 725.224 354.172C724.212 349.258 724.472 343.23 729.04 340.887C733.49 338.606 739.619 341.545 742.287 345.82C744.955 350.094 744.691 359.36 749.519 359.553C767.474 360.271 771.341 331.845 771.341 331.845C771.946 327.581 772.125 323.005 774.744 319.551C777.364 316.096 783.625 314.724 786.65 318.168C788.243 319.981 788.417 322.458 788.439 324.737C788.502 330.809 788.019 336.875 786.998 342.861C786.543 345.519 786.502 349.085 789.254 350.136C789.507 350.229 789.77 350.291 790.038 350.32C791.548 347.451 792.536 344.336 792.954 341.121C793.361 338.258 793.481 335.184 795.24 332.864C797 330.544 801.205 329.622 803.236 331.935C804.305 333.153 804.422 334.816 804.437 336.348C804.478 340.438 800.458 352.484 799.772 356.49C799.754 358.019 800.28 359.562 801.789 359.65C802.117 359.668 802.444 359.599 802.737 359.451C802.892 358.728 803.025 357.997 803.13 357.264C803.536 354.401 803.656 351.328 805.415 349.008C807.175 346.688 811.379 345.765 813.411 348.079C814.48 349.296 814.597 350.96 814.612 352.491C814.63 354.387 813.776 357.993 812.786 361.714C812.311 370.371 808.604 379.126 804.529 387.19C804.165 388.859 803.711 390.508 803.169 392.128C779.238 382.273 752.378 380.187 730.494 389.808C730.715 389.149 730.935 388.478 731.16 387.821ZM804.822 385.68C804.739 386.154 804.647 386.628 804.548 387.102C804.676 386.636 804.767 386.16 804.822 385.68V385.68Z" fill="#2F333F"/>
<path d="M535.064 513.872L540.559 544.114C541.416 548.829 546.835 551.843 552.968 551.2C553.366 551.155 553.766 551.1 554.172 551.026L663.024 531.246C669.625 530.046 674.246 525.001 673.335 519.986L667.839 489.744C666.928 484.729 660.827 481.63 654.226 482.83L545.374 502.61C538.76 503.814 534.153 508.859 535.064 513.872Z" fill="#2F333F"/>
<path d="M605.413 541.718L611.418 540.627L621.787 510.365C621.949 509.904 621.624 509.466 621.05 509.373C620.891 509.347 620.728 509.347 620.568 509.374C620.377 509.401 620.195 509.473 620.037 509.583C619.879 509.694 619.749 509.84 619.658 510.01L605.413 541.718Z" fill="#FEE735"/>
<path d="M599.551 500.178C629.358 494.762 656.978 508.846 661.112 531.598L658.713 532.034C654.761 510.286 628.366 496.822 599.882 501.999C571.378 507.178 551.406 529.068 555.358 550.816L554.178 551.03C553.755 551.107 553.362 551.151 552.972 551.195C548.879 528.463 569.763 505.592 599.551 500.178Z" fill="#FEE735"/>
<path d="M546.214 569.794L551.709 600.036C552.566 604.751 557.985 607.765 564.119 607.121C564.52 607.077 564.917 607.022 565.322 606.949L674.174 587.168C680.778 585.968 685.396 580.924 684.485 575.908L678.989 545.666C678.078 540.651 671.979 537.552 665.376 538.752L556.524 558.532C549.909 559.735 545.302 564.779 546.214 569.794Z" fill="#2F333F"/>
<path d="M667.699 590.079L668.302 562.926L671.579 566.09L682.345 564.134L681.748 560.844L673.55 562.334L664.15 553.253L663.689 574.162L648.816 547.702L649.245 565.426L639.301 567.233L636.848 571.017L628.152 555.821L625.567 575.434L622.039 570.37L606.873 573.126L593.993 561.698L594.098 580.005L591.842 575.857L573.25 579.236L568.277 593.002L556.523 558.533L554.806 582.79L549.239 584.473L550.478 587.61L559.075 585.007L559.356 578.216L567.737 606.742L576.668 582.013L589.06 579.761L598.571 597.245L598.42 571.015L605.008 576.863L619.559 574.218L628.406 586.919L630.764 569.034L636.42 578.917L642.129 570.117L653.687 568.017L653.614 565.018L667.699 590.079Z" fill="#FEE735"/>
<path d="M183.631 116.723L355.974 85.4044C391.519 78.945 425.884 102.731 432.34 138.257L439.775 179.169C442.634 194.913 439.615 211.159 431.289 224.829L454.556 260.508L413.631 244.068C405.693 249.85 396.55 253.762 386.885 255.51L214.542 286.828C178.997 293.287 144.632 269.502 138.176 233.976L130.741 193.063C124.284 157.534 148.085 123.182 183.631 116.723Z" fill="white"/>
<path d="M264.01 141.382L271.624 183.282L230.402 190.772L223.296 151.666C221.336 140.881 204.565 143.91 206.527 154.713L223.532 248.289C225.491 259.073 242.263 256.044 240.3 245.242L233.447 207.533L274.669 200.042L281.141 235.657C283.101 246.441 299.872 243.412 297.909 232.61L280.778 138.335C278.818 127.55 262.047 130.579 264.01 141.382Z" fill="#2F333F"/>
<path d="M294.506 139.521L311.003 230.305C312.963 241.089 329.734 238.06 327.771 227.258L311.274 136.474C309.315 125.69 292.543 128.72 294.506 139.521Z" fill="#2F333F"/>
<path d="M332.163 129.572C335.991 151.721 339.82 173.87 343.65 196.018C345.518 206.822 362.287 203.785 360.418 192.971C356.589 170.822 352.76 148.674 348.931 126.525C347.063 115.721 330.295 118.758 332.163 129.572Z" fill="#2F333F"/>
<path d="M355.997 214.692C345.208 216.653 348.235 233.416 359.043 231.452C369.834 229.491 366.806 212.728 355.997 214.692Z" fill="#2F333F"/>
</g>
<defs>
<clipPath id="clip0">
<rect width="718.518" height="749.687" fill="white" transform="matrix(-0.983887 0.178792 0.178792 0.983887 825.941 0)"/>
</clipPath>
</defs>
</svg>
