<svg xmlns="http://www.w3.org/2000/svg" width="626" height="626" viewBox="0 0 626 626">
  <g id="logo" transform="translate(133.499 166.063)">
    <g id="Ellipse_1" data-name="Ellipse 1" transform="translate(-133.499 -166.063)" fill="#474a80" stroke="#707070" stroke-width="1">
      <circle cx="313" cy="313" r="313" stroke="none"/>
      <circle cx="313" cy="313" r="312.5" fill="none"/>
    </g>
    <g id="Gruppe_16" data-name="Gruppe 16" transform="translate(-40.499 -33.063)">
      <g id="Gruppe_11" data-name="Gruppe 11" transform="translate(0)">
        <g id="Gruppe_3" data-name="Gruppe 3">
          <g id="Gruppe_2" data-name="Gruppe 2">
            <g id="Gruppe_1" data-name="Gruppe 1">
              <path id="Pfad_2" data-name="Pfad 2" d="M901.605,612.529H861.616V522.487a23.315,23.315,0,0,0,18.525-22.529c0-12.775-10.714-23.13-23.932-23.13s-23.934,10.355-23.934,23.13A23.317,23.317,0,0,0,850.8,522.487v90.042h-6.523a12.069,12.069,0,0,0-12.068,12.07V757.363a12.069,12.069,0,0,0,12.069,12.069h57.328a12.069,12.069,0,0,0,12.068-12.067V624.6A12.07,12.07,0,0,0,901.6,612.529Z" transform="translate(-832.209 -476.828)" fill="#cadde1"/>
            </g>
          </g>
        </g>
        <path id="Pfad_4" data-name="Pfad 4" d="M1078.613,499.235c-104.652,0-190.209,62.828-196.416,142.112l-.375.013V801.919h391.517V628.672C1259.543,555.47,1177.624,499.235,1078.613,499.235Z" transform="translate(-850.204 -484.955)" fill="#fff"/>
        <path id="Pfad_5" data-name="Pfad 5" d="M1020.255,615.506c-66.013,0-119.981,39.631-123.895,89.642l-.236.008V806.434h246.962V697.153C1134.383,650.977,1082.711,615.506,1020.255,615.506Z" transform="translate(-855.391 -527.126)" fill="#2f333f"/>
        <rect id="Rechteck_4" data-name="Rechteck 4" width="18.221" height="58.308" rx="5" transform="translate(210.19 180.092)" fill="#fee735"/>
        <rect id="Rechteck_5" data-name="Rechteck 5" width="18.221" height="58.308" rx="5" transform="translate(69.887 180.092)" fill="#fee735"/>
        <g id="Gruppe_8" data-name="Gruppe 8" transform="translate(358.6)">
          <g id="Gruppe_7" data-name="Gruppe 7">
            <g id="Gruppe_6" data-name="Gruppe 6">
              <path id="Pfad_12" data-name="Pfad 12" d="M1406.962,612.529h39.993V522.487a23.315,23.315,0,0,1-18.525-22.529c0-12.775,10.714-23.13,23.932-23.13s23.934,10.355,23.934,23.13a23.317,23.317,0,0,1-18.525,22.529v90.042h6.523a12.069,12.069,0,0,1,12.069,12.068V757.363a12.068,12.068,0,0,1-12.068,12.069h-57.331a12.069,12.069,0,0,1-12.068-12.067V624.6a12.07,12.07,0,0,1,12.069-12.071Z" transform="translate(-1394.894 -476.828)" fill="#cadde1"/>
            </g>
          </g>
        </g>
        <path id="Pfad_20" data-name="Pfad 20" d="M1454.923,995.6l-72.473,28.652Z" transform="translate(-1031.781 -664.986)" fill="#cadde1"/>
      </g>
    </g>
  </g>
</svg>
